<svg width="16" height="16" viewBox="0 0 24 24" fill="none" xmlns="http://www.w3.org/2000/svg"> <path fill-rule="evenodd" clip-rule="evenodd" d="M12 2C6.477 2 2 6.477 2 12C2 16.42 4.865 20.17 8.839 21.489C9.339 21.579 9.521 21.269 9.521 21.001C9.521 20.765 9.512 20.107 9.507 19.265C6.726 19.867 6.139 17.897 6.139 17.897C5.685 16.739 5.029 16.431 5.029 16.431C4.121 15.811 5.098 15.823 5.098 15.823C6.101 15.895 6.629 16.854 6.629 16.854C7.521 18.385 8.97 17.945 9.539 17.686C9.631 17.037 9.889 16.598 10.175 16.346C7.955 16.091 5.619 15.243 5.619 11.473C5.619 10.377 6.009 9.482 6.649 8.782C6.546 8.527 6.203 7.531 6.747 6.155C6.747 6.155 7.586 5.884 9.497 7.181C10.31 6.955 11.157 6.842 12 6.838C12.843 6.842 13.691 6.955 14.505 7.181C16.414 5.884 17.251 6.155 17.251 6.155C17.797 7.531 17.454 8.527 17.351 8.782C17.993 9.482 18.379 10.377 18.379 11.473C18.379 15.252 16.039 16.088 13.813 16.341C14.172 16.65 14.491 17.26 14.491 18.191C14.491 19.537 14.479 20.621 14.479 21.001C14.479 21.271 14.659 21.583 15.167 21.488C19.138 20.166 22 16.418 22 12C22 6.477 17.523 2 12 2Z" fill="#181717"/> </svg>